<mxfile host="app.diagrams.net" modified="2024-05-28T12:12:03.102Z" agent="Mozilla/5.0 (Windows NT 10.0; Win64; x64) AppleWebKit/537.36 (KHTML, like Gecko) Chrome/125.0.0.0 Safari/537.36" version="24.4.9" etag="BFCCN4xmWizROLFDGfGO" type="github">
  <diagram name="PÃ¡gina-1" id="q4yJ66rmaJ5DDmmx_hyh">
    <mxGraphModel>
      <root>
        <mxCell id="0" />
        <mxCell id="1" parent="0" />
      </root>
    </mxGraphModel>
  </diagram>
</mxfile>
